<svg width="253" height="38" viewBox="0 0 253 38" fill="none" xmlns="http://www.w3.org/2000/svg">
<path d="M238.793 5.31411V16.0471H251.42V20.94H238.793V32.1465H252.999V37.0395H232.795V0.421143H252.999V5.31411H238.793Z" fill="#1B191A"/>
<path d="M199.632 32.1987H211.996V37.039H193.634V0.473297H199.632V32.1987Z" fill="#1B191A"/>
<path d="M135.159 18.6775C135.159 15.0998 135.983 11.8904 137.632 9.04936C139.316 6.20828 141.578 3.99856 144.419 2.42018C147.295 0.806726 150.434 0 153.837 0C157.73 0 161.185 0.964563 164.201 2.89369C167.253 4.78774 169.463 7.48852 170.83 10.996H163.623C162.676 9.0669 161.36 7.62882 159.677 6.6818C157.993 5.73477 156.046 5.26126 153.837 5.26126C151.416 5.26126 149.259 5.80492 147.365 6.89225C145.471 7.97957 143.981 9.54041 142.893 11.5748C141.841 13.6091 141.315 15.9767 141.315 18.6775C141.315 21.3782 141.841 23.7458 142.893 25.7802C143.981 27.8145 145.471 29.3929 147.365 30.5153C149.259 31.6026 151.416 32.1463 153.837 32.1463C156.046 32.1463 157.993 31.6728 159.677 30.7257C161.36 29.7787 162.676 28.3406 163.623 26.4115H170.83C169.463 29.919 167.253 32.6198 164.201 34.5138C161.185 36.4079 157.73 37.3549 153.837 37.3549C150.399 37.3549 147.26 36.5657 144.419 34.9874C141.578 33.3739 139.316 31.1466 137.632 28.3056C135.983 25.4645 135.159 22.2551 135.159 18.6775Z" fill="#1B191A"/>
<path d="M107.125 37.039L98.707 22.4127H94.1297V37.039H88.1318V0.473297H100.759C103.565 0.473297 105.932 0.964348 107.862 1.94645C109.826 2.92855 111.281 4.24386 112.228 5.89239C113.21 7.54092 113.702 9.38236 113.702 11.4167C113.702 13.8018 113 15.9765 111.597 17.9407C110.229 19.8698 108.107 21.1851 105.231 21.8866L114.28 37.039H107.125ZM94.1297 17.625H100.759C103.004 17.625 104.687 17.0638 105.81 15.9414C106.967 14.819 107.546 13.3108 107.546 11.4167C107.546 9.52266 106.985 8.04951 105.862 6.99725C104.74 5.90993 103.039 5.36626 100.759 5.36626H94.1297V17.625Z" fill="#1B191A"/>
<path d="M64.4739 0.473297V37.039H58.4761V0.473297H64.4739Z" fill="#1B191A"/>
<path d="M0 18.6775C0 15.0998 0.824265 11.8904 2.47279 9.04936C4.15639 6.20828 6.41873 3.99856 9.25981 2.42018C12.136 0.806726 15.2752 0 18.6775 0C22.5708 0 26.0257 0.964563 29.0421 2.89369C32.0937 4.78774 34.3034 7.48852 35.6713 10.996H28.4634C27.5164 9.0669 26.2011 7.62882 24.5175 6.6818C22.8339 5.73477 20.8872 5.26126 18.6775 5.26126C16.2573 5.26126 14.1002 5.80492 12.2061 6.89225C10.3121 7.97957 8.82137 9.54041 7.73405 11.5748C6.6818 13.6091 6.15567 15.9767 6.15567 18.6775C6.15567 21.3782 6.6818 23.7458 7.73405 25.7802C8.82137 27.8145 10.3121 29.3929 12.2061 30.5153C14.1002 31.6026 16.2573 32.1463 18.6775 32.1463C20.8872 32.1463 22.8339 31.6728 24.5175 30.7257C26.2011 29.7787 27.5164 28.3406 28.4634 26.4115H35.6713C34.3034 29.919 32.0937 32.6198 29.0421 34.5138C26.0257 36.4079 22.5708 37.3549 18.6775 37.3549C15.2401 37.3549 12.1009 36.5657 9.25981 34.9874C6.41873 33.3739 4.15639 31.1466 2.47279 28.3056C0.824265 25.4645 0 22.2551 0 18.6775Z" fill="#1B191A"/>
</svg>
